. 
  
http://www.torrenting.com/        :     Greatest Movie Tracker on The Net!!!
 
http://www.Torrenting.com          :     Once & For all ;)


               www . Torrenting . Com 

(((((((((((((= Enjoy No RAR releases =))))))))))))))))))))


...................................NFO:....................................

.[img]http://img52.imageshack.us/img52/1690/waterforelephantsh.jpg[/img]

[color=blue][size=5][b]Water.for.Elephants.2011.R5.XVID.AC3-5.1.HQ.Hive-CM8[/b][/size][/color]


[b]Thx Hive


CM8 Doing It Right The First Time :D


Sources:
Video: Russian DVD-9
Vodu.slonam.2011.DVD-9
Audio: Imagines Line
thx

Encode: the usual :P
brightness,sharpness,chroma,denoise,rgb,
the line had a slight echo and a disturbing metallic noise in the background which i removed with some special frequency filters.
the line wasnt sync to the r5 video, had to make 5 cuts to get everything lipsync
i cleaned the line and entered it back into the russian 5.1 track.
its nice now

like always my audio will fit on any direct dvd-9 video encode
enjoy

Video: 720x304  @bitrate 1800 2pass
Audio: English AC3 5.1 @384
Sample: yes included[/b]


[url]http://www.imdb.com/title/tt1067583/[/url]


General
Complete name                    : Water.for.Elephants.2011.R5.XVID.AC3-5.1.HQ.Hive-CM8.avi
Format                           : AVI
Format/Info                      : Audio Video Interleave
File size                        : 1.79 GiB
Duration                         : 1h 55mn
Overall bit rate                 : 2 213 Kbps
Writing application              : Nandub v1.0rc2
Writing library                  : Nandub build 1853/release

Video
ID                               : 0
Format                           : MPEG-4 Visual
Format profile                   : Advanced Simple@L5
Format settings, BVOP            : 2
Format settings, QPel            : Yes
Format settings, GMC             : No warppoints
Format settings, Matrix          : Default (H.263)
Muxing mode                      : Packed bitstream
Codec ID                         : XVID
Codec ID/Hint                    : XviD
Duration                         : 1h 55mn
Bit rate                         : 1 820 Kbps
Width                            : 720 pixels
Height                           : 304 pixels
Display aspect ratio             : 2.35:1
Frame rate                       : 25.000 fps
Color space                      : YUV
Chroma subsampling               : 4:2:0
Bit depth                        : 8 bits
Scan type                        : Progressive
Compression mode                 : Lossy
Bits/(Pixel*Frame)               : 0.333
Stream size                      : 1.47 GiB (82%)
Writing library                  : XviD 1.2.1 (UTC 2008-12-04)

Audio
ID                               : 1
Format                           : AC-3
Format/Info                      : Audio Coding 3
Mode extension                   : CM (complete main)
Codec ID                         : 2000
Duration                         : 1h 55mn
Bit rate mode                    : Constant
Bit rate                         : 384 Kbps
Channel(s)                       : 6 channels
Channel positions                : Front: L C R, Side: L R, LFE
Sampling rate                    : 48.0 KHz
Bit depth                        : 16 bits
Compression mode                 : Lossy
Stream size                      : 317 MiB (17%)
Alignment                        : Split accross interleaves
Interleave, duration             : 40 ms (1.00 video frame)
Interleave, preload duration     : 500 ms


Reese Witherspoon	 ... 	Marlena
Robert Pattinson	... 	Jacob
Christoph Waltz	... 	August
Paul Schneider	... 	Charlie


A veterinary student abandons his studies after his parents are killed 
and joins a traveling circus as their vet.  



[img]http://img706.imageshack.us/img706/4014/51685562.png[/img]
[img]http://img402.imageshack.us/img402/5584/wwaad.png[/img]
[img]http://img156.imageshack.us/img156/8118/wwawwaawaa.png[/img]
[img]http://img38.imageshack.us/img38/3153/wwwaaa.png[/img]
[img]http://img710.imageshack.us/img710/2973/wwwaawaa.png[/img]
[img]http://img84.imageshack.us/img84/8412/wwwaawwaawaa.png[/img]
[img]http://img43.imageshack.us/img43/4894/wwwaawwwaaawaa.png[/img]

dvdcover:

[img]http://img829.imageshack.us/img829/6347/waterforelephants2011fr.jpg[/img]





ViSiON,LUSi,SANTi,MAGNET,THC,T0XiCiNK,LKRG,IMAGiNE,WBZ,FLAWL3SS,NOVA
Vik,OneTwo,Rapeseed,D2U,SAFC,goldadvance,MEMORY100,KaN1vE,Unevano,Pinnz,Wayne,Mr Hive
and all P2P groups 
Great Work Guys :D

CM8@hushmail.com